<svg id="line_icons" height="512" viewBox="0 0 74 74" width="512" xmlns="http://www.w3.org/2000/svg" data-name="line icons"><path d="m19.42 43.2h-13.643a3.781 3.781 0 0 1 -3.777-3.779v-13.692a3.782 3.782 0 0 1 3.777-3.778h13.643a1 1 0 0 1 1 1v19.249a1 1 0 0 1 -1 1zm-13.643-19.249a1.78 1.78 0 0 0 -1.777 1.778v13.692a1.779 1.779 0 0 0 1.777 1.779h12.643v-17.249z"/><path d="m48.518 55a1 1 0 0 1 -.376-.074l-29.1-11.8a1 1 0 0 1 -.624-.927v-19.248a1 1 0 0 1 .624-.927l29.1-11.8a1 1 0 0 1 1.376.927v42.849a1 1 0 0 1 -1 1zm-28.098-13.475 27.1 10.988v-39.877l-27.1 10.989z"/><path d="m51.944 58.249a4.43 4.43 0 0 1 -4.426-4.426v-42.5a4.426 4.426 0 1 1 8.852 0v42.5a4.43 4.43 0 0 1 -4.426 4.426zm0-49.349a2.429 2.429 0 0 0 -2.426 2.427v42.5a2.426 2.426 0 1 0 4.852 0v-42.5a2.429 2.429 0 0 0 -2.426-2.427z"/><path d="m19.161 67.1h-6.421a3.081 3.081 0 0 1 -3.025-2.514l-4.133-22.2a1 1 0 0 1 .983-1.186h10.646a1 1 0 0 1 .983.817l3.993 21.444a3.079 3.079 0 0 1 -3.026 3.639zm-11.392-23.9 3.913 21.02a1.077 1.077 0 0 0 1.058.88h6.421a1.077 1.077 0 0 0 1.059-1.274l-3.84-20.626z"/><path d="m55.37 40.231a1 1 0 0 1 -1-1v-13.313a1 1 0 0 1 1-1 7.657 7.657 0 0 1 0 15.313zm1-13.224v11.136a5.657 5.657 0 0 0 0-11.136z"/><path d="m64.349 24.606a1 1 0 0 1 -.622-1.783l2.765-2.193a1 1 0 1 1 1.242 1.57l-2.765 2.19a1 1 0 0 1 -.62.216z"/><path d="m71 33.575h-3.528a1 1 0 1 1 0-2h3.528a1 1 0 0 1 0 2z"/><path d="m67.111 44.736a1 1 0 0 1 -.62-.217l-2.764-2.192a1 1 0 1 1 1.242-1.568l2.764 2.194a1 1 0 0 1 -.622 1.783z"/><path d="m8.156 39.757a2.8 2.8 0 1 1 2.8-2.8 2.806 2.806 0 0 1 -2.8 2.8zm0-3.608a.8.8 0 1 0 .8.8.8.8 0 0 0 -.8-.8z"/></svg>